<?xml version="1.0" standalone="no"?>
<!DOCTYPE svg PUBLIC "-//W3C//DTD SVG 20010904//EN"
 "http://www.w3.org/TR/2001/REC-SVG-20010904/DTD/svg10.dtd">
<svg version="1.0" xmlns="http://www.w3.org/2000/svg"
 width="1200.000000pt" height="1445.000000pt" viewBox="0 0 1200.000000 1445.000000"
 preserveAspectRatio="xMidYMid meet">

<g transform="translate(0.000000,1445.000000) scale(0.100000,-0.100000)"
fill="#000000" stroke="none">
<path d="M7240 14430 c-615 -51 -1193 -223 -1698 -505 -120 -67 -3361 -2133
-3667 -2338 -694 -464 -1233 -1166 -1494 -1947 -335 -1002 -265 -2113 193
-3045 l64 -130 -66 -105 c-77 -121 -242 -445 -291 -570 -130 -329 -209 -650
-258 -1050 -24 -199 -24 -686 0 -880 79 -634 263 -1177 569 -1684 608 -1006
1586 -1731 2733 -2026 1077 -277 2222 -137 3140 385 131 74 3551 2247 3705
2354 374 258 733 623 990 1006 579 860 787 1946 575 3001 -69 339 -180 665
-332 967 l-54 108 54 87 c334 535 515 1091 576 1772 14 147 14 520 1 675 -40
461 -159 916 -350 1336 -194 427 -503 875 -849 1232 -374 386 -761 668 -1236
902 -477 235 -963 377 -1505 441 -158 18 -643 27 -800 14z m580 -1630 c658
-45 1248 -310 1711 -770 159 -159 236 -252 368 -451 222 -332 358 -706 400
-1101 25 -229 7 -584 -39 -778 -25 -105 -119 -412 -130 -423 -4 -5 -83 46
-176 112 -410 292 -856 516 -1299 653 l-140 43 0 160 c0 187 -11 241 -81 382
-75 152 -218 287 -379 359 -138 60 -338 81 -485 50 -160 -34 -154 -31 -1927
-1164 -937 -598 -1728 -1107 -1759 -1132 -107 -85 -198 -235 -230 -378 -25
-110 -16 -280 20 -387 70 -207 202 -357 401 -456 125 -62 215 -82 360 -81 127
1 224 22 337 75 40 18 366 220 723 448 734 468 736 470 862 533 548 273 1180
336 1796 176 453 -117 868 -353 1203 -685 337 -334 574 -727 694 -1151 77
-270 108 -621 81 -911 -60 -647 -393 -1242 -916 -1635 -102 -76 -3581 -2290
-3695 -2351 -269 -144 -586 -242 -900 -278 -151 -17 -460 -15 -608 5 -600 80
-1107 323 -1533 734 -346 333 -606 766 -720 1196 -127 483 -110 955 53 1484
21 67 36 101 44 98 6 -2 70 -46 140 -97 427 -307 851 -521 1325 -670 l137 -43
-2 -150 c-1 -130 2 -162 22 -231 66 -227 200 -395 403 -504 115 -61 195 -82
335 -88 140 -6 220 8 349 60 57 24 549 333 1705 1071 894 571 1663 1063 1709
1093 181 118 291 258 335 431 89 344 -82 709 -409 872 -125 62 -232 83 -390
78 -139 -5 -223 -26 -338 -84 -28 -15 -335 -208 -683 -430 -781 -498 -743
-475 -892 -547 -222 -106 -496 -184 -784 -223 -166 -23 -489 -23 -658 0 -507
68 -978 271 -1362 588 -118 98 -306 288 -393 398 -286 359 -476 794 -542 1237
-21 146 -24 504 -5 638 65 451 203 790 461 1135 111 148 296 333 441 441 123
91 3520 2257 3680 2346 307 171 674 278 1035 303 162 11 186 11 345 0z"/>
</g>
</svg>
